<svg xmlns="http://www.w3.org/2000/svg" width="18" height="18" viewBox="0 0 18 18" fill="currentColor">
  <path fillRule="evenodd" clipRule="evenodd" d="M9.00194 0C13.9726 0 18.0019 4.13093 18.0019 9.22763C18.0019 13.3037 15.4261 16.7615 11.8522 17.9828C11.3959 18.0737 11.2339 17.7856 11.2339 17.5399C11.2339 17.2357 11.2447 16.2421 11.2447 15.0073C11.2447 14.1469 10.9567 13.5854 10.6336 13.2992C12.6379 13.0706 14.7439 12.2902 14.7439 8.74599C14.7439 7.73799 14.3947 6.91543 13.8169 6.26923C13.9105 6.03613 14.2192 5.09755 13.7287 3.82675C13.7287 3.82675 12.9745 3.5795 11.2564 4.77289C10.5373 4.56859 9.76694 4.4658 9.00194 4.4622C8.23694 4.4658 7.46745 4.56859 6.74925 4.77289C5.02935 3.5795 4.27335 3.82675 4.27335 3.82675C3.78465 5.09755 4.09335 6.03613 4.18605 6.26923C3.61095 6.91543 3.25905 7.73799 3.25905 8.74599C3.25905 12.2812 5.36055 13.0735 7.35945 13.3066C7.10205 13.537 6.86895 13.9435 6.78795 14.5402C6.27495 14.776 4.97175 15.1841 4.16895 13.7738C4.16895 13.7738 3.69285 12.8871 2.78925 12.8223C2.78925 12.8223 1.91175 12.8107 2.72805 13.3831C2.72805 13.3831 3.31755 13.6666 3.72705 14.7331C3.72705 14.7331 4.25535 16.3801 6.75915 15.8221C6.76365 16.5934 6.77175 17.3203 6.77175 17.5399C6.77175 17.7838 6.60614 18.0692 6.15704 17.9837C2.58045 16.7642 0.00195312 13.3046 0.00195312 9.22763C0.00195312 4.13093 4.03215 0 9.00194 0Z" fill="#282A35"/>
</svg>
